<svg width="36" height="36" viewBox="0 0 36 36" xmlns="http://www.w3.org/2000/svg">
    <g fill="none" fill-rule="evenodd">
        <circle fill="#C12335" fill-rule="nonzero" cx="18" cy="18" r="18"/>
        <path d="M8 8h20v20H8z"/>
        <g fill-rule="nonzero">
            <path d="m25.248 23.474-.82-11.456a2 2 0 0 0-.601-1.427A2.073 2.073 0 0 0 22.374 10h-8.748c-1.134 0-2.054.903-2.055 2.018l-.82 11.456H9V26h18v-2.526h-1.752z" fill="#FFF"/>
            <path d="M17.011 21.984a.98.98 0 0 1 .989-.972.98.98 0 0 1 .99.971.982.982 0 0 1-.99.973.98.98 0 0 1-.989-.972zM17.998 20.082a.853.853 0 0 1-.843-.85l-.144-5.619a.894.894 0 0 1 .255-.65.821.821 0 0 1 .586-.246h.297c.221 0 .433.09.586.247a.89.89 0 0 1 .255.65l-.15 5.62a.852.852 0 0 1-.842.848z" fill="#C12335"/>
        </g>
    </g>
</svg>
