<svg width="36" height="36" viewBox="0 0 36 36" xmlns="http://www.w3.org/2000/svg">
    <g fill="none" fill-rule="evenodd">
        <path d="M18 0c9.941 0 18 8.059 18 18s-8.059 18-18 18S0 27.941 0 18 8.059 0 18 0z" fill="#54595F" fill-rule="nonzero"/>
        <path d="M8 8h20v20H8z"/>
        <path d="m24.672 15.972-5.639-5.075a1.546 1.546 0 0 0-2.068 0l-5.639 5.075a1.4 1.4 0 0 0-.469 1.037v7.242a1.468 1.468 0 0 0 1.5 1.428h3.853a.355.355 0 0 0 .357-.357v-5c0-.197.16-.357.357-.357h2.143c.197 0 .357.16.357.357v5c0 .197.16.357.357.357h3.853a1.467 1.467 0 0 0 1.5-1.428v-7.242a1.4 1.4 0 0 0-.469-1.037" fill="#FFF" fill-rule="nonzero"/>
    </g>
</svg>
