<svg width="36" height="36" viewBox="0 0 36 36" xmlns="http://www.w3.org/2000/svg">
    <g fill="none" fill-rule="evenodd">
        <circle fill="#54595F" fill-rule="nonzero" cx="18" cy="18" r="18"/>
        <path opacity=".55" d="M7 7h22v22H7z"/>
        <g fill="#FFF" fill-rule="nonzero">
            <path d="m20.476 21.376-2.143-.535-.086-.341a7.28 7.28 0 0 0 2.263-.726.392.392 0 0 0 .04-.641c-.01-.008-1-.842-1-3.717 0-2.547-.614-3.838-1.826-3.838H17.6A1.942 1.942 0 0 0 16 11c-1.112 0-3.551 1.111-3.551 4.413 0 2.875-.989 3.709-.994 3.713a.389.389 0 0 0 .033.644 7.105 7.105 0 0 0 2.266.73l-.086.342-2.144.536A3.327 3.327 0 0 0 9 24.611a.387.387 0 0 0 .389.389h13.222a.389.389 0 0 0 .389-.391 3.327 3.327 0 0 0-2.524-3.233z"/>
            <path d="m20.772 20.634 1.209.3a3.661 3.661 0 0 1 2.777 3.556 1.29 1.29 0 0 1-.011.265.325.325 0 0 1-.173.24h2.7a.389.389 0 0 0 .389-.389c0-1.53-1.04-2.862-2.525-3.23l-2.144-.535-.156-.635a4.077 4.077 0 0 0 1.09-2.161.966.966 0 0 0 .633-.789l.144-1.15a.964.964 0 0 0-.545-.99l.047-.972.189-.19a1.418 1.418 0 0 0 .042-1.916A2.51 2.51 0 0 0 22.179 11h-1.483c-.331 0-.661.048-.979.142.824.478 1.246 1.813 1.246 4.012 0 3.163 1.089 4.08 1.1 4.089a.432.432 0 0 1-.044.705 6.475 6.475 0 0 1-1.305.516l.058.17z"/>
        </g>
    </g>
</svg>
